<svg width="400" height="401" viewBox="0 0 400 401" fill="none" xmlns="http://www.w3.org/2000/svg">
<rect width="400" height="400" transform="translate(0 0.25)" fill="#2B2B2B"/>
<path fill-rule="evenodd" clip-rule="evenodd" d="M258.135 52.9232C257.371 52.5752 256.639 52.1009 255.838 51.898C226.259 44.4076 197.041 45.593 168.411 56.2107C157.274 60.3404 146.793 65.8703 137.048 72.8822C128.613 78.9511 120.89 85.7403 114.095 93.4975C91.1923 119.642 80.2924 150.074 82.3106 184.966C83.6623 208.333 91.3537 229.465 106 247.601C123.066 268.732 145.027 281.87 172.448 284.515C190.51 286.257 207.747 283.214 223.567 273.897C230.373 269.888 236.52 264.988 241.976 259.232C243.649 257.467 245.416 255.736 247.386 254.337C248.233 253.734 250.006 253.531 250.81 254.031C251.602 254.523 252.266 256.299 251.999 257.226C251.115 260.299 250.205 263.504 248.549 266.189C243.624 274.175 237.286 280.898 229.424 286.135C199.299 306.196 167.537 306.473 135.086 293.251C117.947 286.267 103.737 274.941 91.7497 260.66C71.1955 236.172 61.9125 207.641 61.2952 176.145C60.9384 157.93 64.8752 140.262 71.5188 123.31C76.9479 109.458 84.1093 96.5211 93.7594 85.1185C98.0157 80.0894 102.604 75.3421 107.038 70.4624C107.877 69.5389 108.694 68.596 109.522 67.6615C109.392 67.5036 109.262 67.3452 109.131 67.1868C107.992 68.1184 106.751 68.9497 105.731 69.9971C96.436 79.5427 87.7714 89.5588 80.7601 101.001C68.5259 120.966 61.0856 142.468 59.1326 165.82C57.4769 185.612 59.4313 205.043 65.9277 223.854C71.506 240.008 79.5486 254.906 90.9139 267.722C118.02 298.288 151.78 313.522 192.875 310.638C214.032 309.153 233.348 301.965 249.859 288.503C275.159 267.875 287.831 241.277 286.012 208.252C285.861 205.5 285.576 202.729 285.766 199.995C285.848 198.82 286.816 196.981 287.689 196.78C288.678 196.552 290.428 197.52 291.123 198.49C294.243 202.836 295.214 208.034 295.952 213.17C298.893 233.642 294.825 252.782 284.744 270.754C275.119 287.915 261.859 301.572 244.981 311.52C214.45 329.515 181.816 332.982 147.753 324.531C126.46 319.248 107.683 308.948 91.113 294.598C73.814 279.617 60.6995 261.548 51.6474 240.521C49.5353 235.616 47.5445 230.657 45.228 225.779C46.1838 228.918 46.9682 232.121 48.1217 235.185C59.5814 265.62 78.2992 290.459 105.306 308.716C129.148 324.832 155.53 333.354 184.323 333.299C214.907 333.241 242.523 323.915 266.408 304.516C290.159 285.225 304.485 260.301 308.881 229.993C312.237 206.849 307.976 184.792 296.257 164.604C286.319 147.486 272.219 134.568 253.692 126.972C249.405 125.214 244.995 123.759 240.644 122.156C239.464 121.722 238.12 121.485 237.168 120.748C236.216 120.012 234.948 118.623 235.112 117.77C235.317 116.707 236.708 115.406 237.833 115.092C239.837 114.533 242.034 114.418 244.136 114.501C257.171 115.017 268.813 119.723 279.6 126.756C302.982 142 317.261 163.671 323.667 190.61C330.128 217.773 327.099 244.181 315.984 269.647C306.783 290.727 292.621 308.077 274.616 322.176C262.98 331.288 250.075 338.266 236.181 343.518C223.19 348.429 209.852 351.387 196.077 352.631C195.064 352.723 194.061 352.919 193.056 353.318C195.077 353.318 197.119 353.504 199.117 353.288C214.425 351.634 229.473 348.707 243.705 342.652C261.144 335.232 276.928 325.289 290.509 311.823C300.777 301.643 309.573 290.467 316.335 277.707C330.363 251.234 335.475 223.155 330.611 193.513C325.462 162.125 310.558 136.309 285 117.234C264.912 102.241 242.19 94.8953 216.966 96.3513C201.001 97.273 186.113 102.1 172.854 110.9C155.567 122.376 143.874 138.177 139.068 158.701C138.567 160.838 138.004 163.029 137.006 164.953C136.449 166.028 134.943 167.216 133.849 167.232C132.766 167.247 130.952 166.037 130.697 165.044C129.805 161.585 128.991 157.99 128.977 154.443C128.938 144.767 132.132 135.832 136.511 127.381C147.751 105.689 165.506 91.5515 188.228 83.3442C220.86 71.5571 252.201 75.8017 282.38 91.5104C299.289 100.312 313.249 112.759 324.811 127.99C339.466 147.295 348.456 168.929 352.046 192.842C353.062 199.611 353.659 206.443 354.507 213.757C355.281 204.799 354.244 196.441 352.873 188.153C348.945 164.399 339.815 142.779 325.196 123.667C313.043 107.777 298.138 95.0532 280.298 85.7597C260.239 75.3095 238.943 70.0302 216.451 70.957C190.444 72.0286 166.436 80.0388 146.568 97.1623C116.763 122.849 103.433 155.274 111.526 194.686C116.312 217.989 129.599 235.694 150.713 246.968C155.515 249.532 160.959 250.894 166.119 252.777C167.963 253.45 170.001 253.761 171.648 254.745C172.752 255.404 173.976 256.968 173.956 258.106C173.937 259.261 172.645 261.118 171.578 261.398C168.126 262.305 164.489 263.252 160.982 263.07C145.917 262.286 132.924 256.329 121.451 246.595C104.238 231.993 94.5741 213.219 90.423 191.316C85.5408 165.554 90.2932 141.197 102.199 118.28C112.718 98.0338 128.064 82.0584 147.479 69.8992C171.699 54.7301 198.09 47.948 226.454 48.5481C237.156 48.7746 247.751 50.3394 258.171 52.91L258.135 52.9232Z" fill="url(#paint0_linear_717_1288)"/>
<defs>
<linearGradient id="paint0_linear_717_1288" x1="158.698" y1="630.845" x2="537.389" y2="515.985" gradientUnits="userSpaceOnUse">
<stop stop-color="#F26F56"/>
<stop offset="1" stop-color="#F49756"/>
</linearGradient>
</defs>
</svg>
