<svg width="32" height="32" viewBox="0 0 32 32" fill="none" xmlns="http://www.w3.org/2000/svg">
<g clip-path="url(#clip0_8079_50774)">
<path d="M18.735 0.137632C19.8062 0.160273 20.867 0.312334 21.9108 0.56266C21.9031 0.558701 21.8953 0.554794 21.8876 0.550991C21.8488 0.531782 21.81 0.514746 21.7698 0.504572C18.714 -0.268227 15.6958 -0.145899 12.7381 0.949467C11.5877 1.37548 10.505 1.94594 9.49841 2.66926C8.627 3.29541 7.8292 3.99579 7.12735 4.79593C4.76154 7.49303 3.63575 10.632 3.84421 14.2313C3.98383 16.6416 4.77821 18.8211 6.29083 20.6916C8.05347 22.8711 10.3213 24.2259 13.1528 24.4986C15.018 24.6783 16.7976 24.3644 18.4309 23.4038C19.1336 22.9905 19.7683 22.4852 20.3317 21.8917C20.5047 21.7094 20.688 21.53 20.8924 21.385C20.9383 21.3524 21.008 21.3312 21.0763 21.3246C21.1443 21.3179 21.2137 21.3254 21.2583 21.353C21.3022 21.3803 21.3409 21.4415 21.3652 21.5065C21.3894 21.5714 21.4006 21.6438 21.3859 21.6949L21.3821 21.7081C21.292 22.0211 21.1978 22.3481 21.028 22.623C20.5181 23.4487 19.8619 24.1439 19.0477 24.6854C15.93 26.7589 12.6426 26.7872 9.28529 25.421C7.51159 24.6994 6.04119 23.5289 4.80111 22.0534C2.67448 19.5232 1.71414 16.5753 1.65028 13.3216C1.61336 11.4393 2.02071 9.61384 2.70791 7.86279C3.26951 6.4318 4.01039 5.09515 5.0089 3.91689C5.3087 3.56314 5.62456 3.22275 5.94024 2.88256C6.08803 2.7233 6.23578 2.56407 6.38182 2.40354C6.44111 2.33838 6.49933 2.27231 6.55763 2.20614C6.57809 2.18292 6.59857 2.15968 6.6191 2.13647C6.62681 2.12775 6.62704 2.11474 6.61965 2.10577C6.6114 2.09576 6.59653 2.09423 6.58626 2.10239C6.55712 2.12559 6.52763 2.14822 6.49822 2.17077C6.41567 2.23411 6.33383 2.2969 6.26236 2.37019C5.30171 3.3554 4.40659 4.3888 3.68237 5.56914C2.41843 7.62899 1.64985 9.84722 1.4481 12.2563C1.27705 14.2982 1.47898 16.3028 2.15001 18.2432C2.72631 19.9099 3.55709 21.4466 4.73092 22.7685C7.53108 25.9218 11.0179 27.493 15.2627 27.1955C17.4478 27.0423 19.4425 26.301 21.1475 24.9127C23.7605 22.7851 25.0689 20.0424 24.8811 16.6366C24.8777 16.5748 24.8736 16.5129 24.8695 16.4508C24.8549 16.2282 24.8402 16.0042 24.8556 15.7828C24.86 15.7201 24.8878 15.6407 24.9257 15.5746C24.9447 15.5414 24.9665 15.5111 24.9895 15.4877C25.0124 15.4644 25.0373 15.447 25.0627 15.4412C25.1176 15.4285 25.1913 15.4491 25.2589 15.484C25.3269 15.5191 25.3916 15.5701 25.4288 15.6219C25.753 16.073 25.8537 16.6119 25.9299 17.1422C26.2344 19.2582 25.8132 21.2366 24.77 23.0938C23.7741 24.8671 22.4019 26.2785 20.6555 27.3065C17.4966 29.1659 14.12 29.5239 10.5962 28.6509C8.39318 28.105 6.45063 27.0408 4.73649 25.5584C2.9469 24.0106 1.5902 22.1439 0.653786 19.9717C0.591484 19.8272 0.530198 19.6822 0.468876 19.5371C0.446563 19.4844 0.424246 19.4316 0.401873 19.3788C0.385687 19.3406 0.355004 19.3326 0.333196 19.3407C0.321998 19.3449 0.312604 19.3534 0.307626 19.3653C0.302675 19.3771 0.301755 19.3931 0.309171 19.4128C1.49313 22.5529 3.4268 25.1153 6.21677 26.9988C8.67974 28.6615 11.4051 29.5407 14.3793 29.535C17.5387 29.529 20.3912 28.567 22.8583 26.5659C25.3117 24.5759 26.7912 22.0052 27.2452 18.8789C27.5919 16.492 27.1518 14.2173 25.9415 12.1352C24.9154 10.3698 23.4594 9.03791 21.5465 8.25463C21.2482 8.13251 20.9444 8.0246 20.6403 7.91658C20.4927 7.86417 20.3451 7.81174 20.198 7.75764C20.1678 7.74653 20.1365 7.73667 20.1048 7.72688L20.0913 7.72273C20.0641 7.71435 20.0366 7.70591 20.0097 7.69675C19.9471 7.67541 19.8864 7.64982 19.8358 7.61068C19.786 7.57217 19.7279 7.51667 19.6843 7.45947C19.6625 7.43086 19.644 7.40152 19.6321 7.37341C19.6203 7.34544 19.6145 7.31767 19.6193 7.2927C19.6305 7.23474 19.6735 7.17185 19.7273 7.11981C19.7813 7.06765 19.8479 7.02477 19.9083 7.00795C20.1169 6.94983 20.3453 6.93797 20.5631 6.94658C21.9131 6.99989 23.1185 7.48664 24.2348 8.21343C26.6544 9.7888 28.132 12.0286 28.7949 14.8121C29.4633 17.6189 29.1499 20.3476 28 22.9786C27.048 25.1567 25.5828 26.9492 23.7202 28.4058C22.5163 29.3473 21.1813 30.0681 19.7441 30.6107C18.4002 31.118 17.0204 31.4236 15.5954 31.5521L15.5945 31.5415L15.5954 31.5521C15.5804 31.5535 15.5709 31.5583 15.5655 31.5637C15.5602 31.5689 15.5583 31.5751 15.559 31.581C15.5604 31.5925 15.5733 31.6081 15.6037 31.6087C15.7058 31.6105 15.8073 31.6095 15.9076 31.5987C17.4896 31.428 19.044 31.126 20.5139 30.5014C22.3157 29.7358 23.9462 28.71 25.3491 27.321C26.41 26.2705 27.3186 25.1176 28.017 23.8014C29.4661 21.0703 29.9941 18.1738 29.4918 15.116C28.9598 11.8782 27.4205 9.2155 24.7807 7.24796C22.7059 5.7015 20.3594 4.94402 17.7545 5.09418C16.1059 5.18923 14.5687 5.68696 13.1997 6.59446C11.4146 7.77778 10.2076 9.40685 9.71137 11.5228C9.65966 11.7435 9.60121 11.9708 9.49733 12.1708C9.46759 12.2281 9.41303 12.2876 9.35182 12.3331C9.29083 12.3784 9.22143 12.4109 9.1616 12.4118C9.10238 12.4127 9.0253 12.3804 8.96038 12.336C8.92771 12.3137 8.89759 12.288 8.87386 12.2611C8.85023 12.2343 8.83238 12.2058 8.82519 12.1779C8.73296 11.8208 8.64852 11.4485 8.64705 11.0809C8.64304 10.0795 8.97408 9.15529 9.42717 8.28201C10.5905 6.03986 12.4282 4.57868 14.7794 3.73057C18.1561 2.51251 21.3992 2.95133 24.5212 4.57421C26.2709 5.48372 27.7151 6.76981 28.9113 8.34339C30.4274 10.3379 31.3574 12.573 31.7287 15.0435C31.7385 15.1082 31.7554 15.1555 31.7742 15.1859C31.7934 15.2171 31.8127 15.2281 31.8264 15.2274C31.8394 15.2267 31.8545 15.2151 31.8641 15.183C31.8737 15.1514 31.8766 15.1034 31.8673 15.0385C31.8444 14.8795 31.8194 14.721 31.7932 14.5628C31.3873 12.1121 30.4441 9.88169 28.934 7.91003C27.6785 6.27079 26.1389 4.95824 24.2961 3.99953C22.2239 2.92144 20.0243 2.37692 17.7011 2.47252C15.0145 2.58307 12.5351 3.40935 10.4833 5.17534C7.40469 7.825 6.02844 11.1687 6.86426 15.2333C7.35836 17.6359 8.72994 19.4611 10.9099 20.6235C11.255 20.8076 11.6318 20.9313 12.0094 21.0553C12.174 21.1094 12.3388 21.1635 12.5011 21.2226C12.567 21.2466 12.635 21.2661 12.7033 21.2856C12.7335 21.2942 12.7638 21.3029 12.794 21.312C12.8919 21.3414 12.9882 21.3752 13.0745 21.4266C13.1331 21.4616 13.1943 21.52 13.2406 21.5846C13.2868 21.6488 13.3194 21.7209 13.3183 21.7831C13.3173 21.8458 13.282 21.9257 13.234 21.9929C13.2099 22.0267 13.1822 22.0578 13.1534 22.0823C13.1247 22.1068 13.0942 22.1253 13.0645 22.1331C12.708 22.2266 12.3304 22.3249 11.9658 22.306C10.4057 22.2249 9.06042 21.6088 7.87284 20.6027C6.09124 19.0933 5.09115 17.1528 4.66163 14.8895C4.15642 12.2272 4.64829 9.71015 5.88007 7.34241C6.96841 5.25041 8.55628 3.59976 10.5648 2.34352C13.0705 0.77631 15.8008 0.0756378 18.735 0.137632Z" fill="#353535"/>
<path d="M18.735 0.137632C19.8062 0.160273 20.867 0.312334 21.9108 0.56266C21.9031 0.558701 21.8953 0.554794 21.8876 0.550991C21.8488 0.531782 21.81 0.514746 21.7698 0.504572C18.714 -0.268227 15.6958 -0.145899 12.7381 0.949467C11.5877 1.37548 10.505 1.94594 9.49841 2.66926C8.627 3.29541 7.8292 3.99579 7.12735 4.79593C4.76154 7.49303 3.63575 10.632 3.84421 14.2313C3.98383 16.6416 4.77821 18.8211 6.29083 20.6916C8.05347 22.8711 10.3213 24.2259 13.1528 24.4986C15.018 24.6783 16.7976 24.3644 18.4309 23.4038C19.1336 22.9905 19.7683 22.4852 20.3317 21.8917C20.5047 21.7094 20.688 21.53 20.8924 21.385C20.9383 21.3524 21.008 21.3312 21.0763 21.3246C21.1443 21.3179 21.2137 21.3254 21.2583 21.353C21.3022 21.3803 21.3409 21.4415 21.3652 21.5065C21.3894 21.5714 21.4006 21.6438 21.3859 21.6949L21.3821 21.7081C21.292 22.0211 21.1978 22.3481 21.028 22.623C20.5181 23.4487 19.8619 24.1439 19.0477 24.6854C15.93 26.7589 12.6426 26.7872 9.28529 25.421C7.51159 24.6994 6.04119 23.5289 4.80111 22.0534C2.67448 19.5232 1.71414 16.5753 1.65028 13.3216C1.61336 11.4393 2.02071 9.61384 2.70791 7.86279C3.26951 6.4318 4.01039 5.09515 5.0089 3.91689C5.3087 3.56314 5.62456 3.22275 5.94024 2.88256C6.08803 2.7233 6.23578 2.56407 6.38182 2.40354C6.44111 2.33838 6.49933 2.27231 6.55763 2.20614C6.57809 2.18292 6.59857 2.15968 6.6191 2.13647C6.62681 2.12775 6.62704 2.11474 6.61965 2.10577C6.6114 2.09576 6.59653 2.09423 6.58626 2.10239C6.55712 2.12559 6.52763 2.14822 6.49822 2.17077C6.41567 2.23411 6.33383 2.2969 6.26236 2.37019C5.30171 3.3554 4.40659 4.3888 3.68237 5.56914C2.41843 7.62899 1.64985 9.84722 1.4481 12.2563C1.27705 14.2982 1.47898 16.3028 2.15001 18.2432C2.72631 19.9099 3.55709 21.4466 4.73092 22.7685C7.53108 25.9218 11.0179 27.493 15.2627 27.1955C17.4478 27.0423 19.4425 26.301 21.1475 24.9127C23.7605 22.7851 25.0689 20.0424 24.8811 16.6366C24.8777 16.5748 24.8736 16.5129 24.8695 16.4508C24.8549 16.2282 24.8402 16.0042 24.8556 15.7828C24.86 15.7201 24.8878 15.6407 24.9257 15.5746C24.9447 15.5414 24.9665 15.5111 24.9895 15.4877C25.0124 15.4644 25.0373 15.447 25.0627 15.4412C25.1176 15.4285 25.1913 15.4491 25.2589 15.484C25.3269 15.5191 25.3916 15.5701 25.4288 15.6219C25.753 16.073 25.8537 16.6119 25.9299 17.1422C26.2344 19.2582 25.8132 21.2366 24.77 23.0938C23.7741 24.8671 22.4019 26.2785 20.6555 27.3065C17.4966 29.1659 14.12 29.5239 10.5962 28.6509C8.39318 28.105 6.45063 27.0408 4.73649 25.5584C2.9469 24.0106 1.5902 22.1439 0.653786 19.9717C0.591484 19.8272 0.530198 19.6822 0.468876 19.5371C0.446563 19.4844 0.424246 19.4316 0.401873 19.3788C0.385687 19.3406 0.355004 19.3326 0.333196 19.3407C0.321998 19.3449 0.312604 19.3534 0.307626 19.3653C0.302675 19.3771 0.301755 19.3931 0.309171 19.4128C1.49313 22.5529 3.4268 25.1153 6.21677 26.9988C8.67974 28.6615 11.4051 29.5407 14.3793 29.535C17.5387 29.529 20.3912 28.567 22.8583 26.5659C25.3117 24.5759 26.7912 22.0052 27.2452 18.8789C27.5919 16.492 27.1518 14.2173 25.9415 12.1352C24.9154 10.3698 23.4594 9.03791 21.5465 8.25463C21.2482 8.13251 20.9444 8.0246 20.6403 7.91658C20.4927 7.86417 20.3451 7.81174 20.198 7.75764C20.1678 7.74653 20.1365 7.73667 20.1048 7.72688L20.0913 7.72273C20.0641 7.71435 20.0366 7.70591 20.0097 7.69675C19.9471 7.67541 19.8864 7.64982 19.8358 7.61068C19.786 7.57217 19.7279 7.51667 19.6843 7.45947C19.6625 7.43086 19.644 7.40152 19.6321 7.37341C19.6203 7.34544 19.6145 7.31767 19.6193 7.2927C19.6305 7.23474 19.6735 7.17185 19.7273 7.11981C19.7813 7.06765 19.8479 7.02477 19.9083 7.00795C20.1169 6.94983 20.3453 6.93797 20.5631 6.94658C21.9131 6.99989 23.1185 7.48664 24.2348 8.21343C26.6544 9.7888 28.132 12.0286 28.7949 14.8121C29.4633 17.6189 29.1499 20.3476 28 22.9786C27.048 25.1567 25.5828 26.9492 23.7202 28.4058C22.5163 29.3473 21.1813 30.0681 19.7441 30.6107C18.4002 31.118 17.0204 31.4236 15.5954 31.5521L15.5945 31.5415L15.5954 31.5521C15.5804 31.5535 15.5709 31.5583 15.5655 31.5637C15.5602 31.5689 15.5583 31.5751 15.559 31.581C15.5604 31.5925 15.5733 31.6081 15.6037 31.6087C15.7058 31.6105 15.8073 31.6095 15.9076 31.5987C17.4896 31.428 19.044 31.126 20.5139 30.5014C22.3157 29.7358 23.9462 28.71 25.3491 27.321C26.41 26.2705 27.3186 25.1176 28.017 23.8014C29.4661 21.0703 29.9941 18.1738 29.4918 15.116C28.9598 11.8782 27.4205 9.2155 24.7807 7.24796C22.7059 5.7015 20.3594 4.94402 17.7545 5.09418C16.1059 5.18923 14.5687 5.68696 13.1997 6.59446C11.4146 7.77778 10.2076 9.40685 9.71137 11.5228C9.65966 11.7435 9.60121 11.9708 9.49733 12.1708C9.46759 12.2281 9.41303 12.2876 9.35182 12.3331C9.29083 12.3784 9.22143 12.4109 9.1616 12.4118C9.10238 12.4127 9.0253 12.3804 8.96038 12.336C8.92771 12.3137 8.89759 12.288 8.87386 12.2611C8.85023 12.2343 8.83238 12.2058 8.82519 12.1779C8.73296 11.8208 8.64852 11.4485 8.64705 11.0809C8.64304 10.0795 8.97408 9.15529 9.42717 8.28201C10.5905 6.03986 12.4282 4.57868 14.7794 3.73057C18.1561 2.51251 21.3992 2.95133 24.5212 4.57421C26.2709 5.48372 27.7151 6.76981 28.9113 8.34339C30.4274 10.3379 31.3574 12.573 31.7287 15.0435C31.7385 15.1082 31.7554 15.1555 31.7742 15.1859C31.7934 15.2171 31.8127 15.2281 31.8264 15.2274C31.8394 15.2267 31.8545 15.2151 31.8641 15.183C31.8737 15.1514 31.8766 15.1034 31.8673 15.0385C31.8444 14.8795 31.8194 14.721 31.7932 14.5628C31.3873 12.1121 30.4441 9.88169 28.934 7.91003C27.6785 6.27079 26.1389 4.95824 24.2961 3.99953C22.2239 2.92144 20.0243 2.37692 17.7011 2.47252C15.0145 2.58307 12.5351 3.40935 10.4833 5.17534C7.40469 7.825 6.02844 11.1687 6.86426 15.2333C7.35836 17.6359 8.72994 19.4611 10.9099 20.6235C11.255 20.8076 11.6318 20.9313 12.0094 21.0553C12.174 21.1094 12.3388 21.1635 12.5011 21.2226C12.567 21.2466 12.635 21.2661 12.7033 21.2856C12.7335 21.2942 12.7638 21.3029 12.794 21.312C12.8919 21.3414 12.9882 21.3752 13.0745 21.4266C13.1331 21.4616 13.1943 21.52 13.2406 21.5846C13.2868 21.6488 13.3194 21.7209 13.3183 21.7831C13.3173 21.8458 13.282 21.9257 13.234 21.9929C13.2099 22.0267 13.1822 22.0578 13.1534 22.0823C13.1247 22.1068 13.0942 22.1253 13.0645 22.1331C12.708 22.2266 12.3304 22.3249 11.9658 22.306C10.4057 22.2249 9.06042 21.6088 7.87284 20.6027C6.09124 19.0933 5.09115 17.1528 4.66163 14.8895C4.15642 12.2272 4.64829 9.71015 5.88007 7.34241C6.96841 5.25041 8.55628 3.59976 10.5648 2.34352C13.0705 0.77631 15.8008 0.0756378 18.735 0.137632Z" fill="url(#paint0_linear_8079_50774)"/>
<path d="M18.735 0.137632C19.8062 0.160273 20.867 0.312334 21.9108 0.56266C21.9031 0.558701 21.8953 0.554794 21.8876 0.550991C21.8488 0.531782 21.81 0.514746 21.7698 0.504572C18.714 -0.268227 15.6958 -0.145899 12.7381 0.949467C11.5877 1.37548 10.505 1.94594 9.49841 2.66926C8.627 3.29541 7.8292 3.99579 7.12735 4.79593C4.76154 7.49303 3.63575 10.632 3.84421 14.2313C3.98383 16.6416 4.77821 18.8211 6.29083 20.6916C8.05347 22.8711 10.3213 24.2259 13.1528 24.4986C15.018 24.6783 16.7976 24.3644 18.4309 23.4038C19.1336 22.9905 19.7683 22.4852 20.3317 21.8917C20.5047 21.7094 20.688 21.53 20.8924 21.385C20.9383 21.3524 21.008 21.3312 21.0763 21.3246C21.1443 21.3179 21.2137 21.3254 21.2583 21.353C21.3022 21.3803 21.3409 21.4415 21.3652 21.5065C21.3894 21.5714 21.4006 21.6438 21.3859 21.6949L21.3821 21.7081C21.292 22.0211 21.1978 22.3481 21.028 22.623C20.5181 23.4487 19.8619 24.1439 19.0477 24.6854C15.93 26.7589 12.6426 26.7872 9.28529 25.421C7.51159 24.6994 6.04119 23.5289 4.80111 22.0534C2.67448 19.5232 1.71414 16.5753 1.65028 13.3216C1.61336 11.4393 2.02071 9.61384 2.70791 7.86279C3.26951 6.4318 4.01039 5.09515 5.0089 3.91689C5.3087 3.56314 5.62456 3.22275 5.94024 2.88256C6.08803 2.7233 6.23578 2.56407 6.38182 2.40354C6.44111 2.33838 6.49933 2.27231 6.55763 2.20614C6.57809 2.18292 6.59857 2.15968 6.6191 2.13647C6.62681 2.12775 6.62704 2.11474 6.61965 2.10577C6.6114 2.09576 6.59653 2.09423 6.58626 2.10239C6.55712 2.12559 6.52763 2.14822 6.49822 2.17077C6.41567 2.23411 6.33383 2.2969 6.26236 2.37019C5.30171 3.3554 4.40659 4.3888 3.68237 5.56914C2.41843 7.62899 1.64985 9.84722 1.4481 12.2563C1.27705 14.2982 1.47898 16.3028 2.15001 18.2432C2.72631 19.9099 3.55709 21.4466 4.73092 22.7685C7.53108 25.9218 11.0179 27.493 15.2627 27.1955C17.4478 27.0423 19.4425 26.301 21.1475 24.9127C23.7605 22.7851 25.0689 20.0424 24.8811 16.6366C24.8777 16.5748 24.8736 16.5129 24.8695 16.4508C24.8549 16.2282 24.8402 16.0042 24.8556 15.7828C24.86 15.7201 24.8878 15.6407 24.9257 15.5746C24.9447 15.5414 24.9665 15.5111 24.9895 15.4877C25.0124 15.4644 25.0373 15.447 25.0627 15.4412C25.1176 15.4285 25.1913 15.4491 25.2589 15.484C25.3269 15.5191 25.3916 15.5701 25.4288 15.6219C25.753 16.073 25.8537 16.6119 25.9299 17.1422C26.2344 19.2582 25.8132 21.2366 24.77 23.0938C23.7741 24.8671 22.4019 26.2785 20.6555 27.3065C17.4966 29.1659 14.12 29.5239 10.5962 28.6509C8.39318 28.105 6.45063 27.0408 4.73649 25.5584C2.9469 24.0106 1.5902 22.1439 0.653786 19.9717C0.591484 19.8272 0.530198 19.6822 0.468876 19.5371C0.446563 19.4844 0.424246 19.4316 0.401873 19.3788C0.385687 19.3406 0.355004 19.3326 0.333196 19.3407C0.321998 19.3449 0.312604 19.3534 0.307626 19.3653C0.302675 19.3771 0.301755 19.3931 0.309171 19.4128C1.49313 22.5529 3.4268 25.1153 6.21677 26.9988C8.67974 28.6615 11.4051 29.5407 14.3793 29.535C17.5387 29.529 20.3912 28.567 22.8583 26.5659C25.3117 24.5759 26.7912 22.0052 27.2452 18.8789C27.5919 16.492 27.1518 14.2173 25.9415 12.1352C24.9154 10.3698 23.4594 9.03791 21.5465 8.25463C21.2482 8.13251 20.9444 8.0246 20.6403 7.91658C20.4927 7.86417 20.3451 7.81174 20.198 7.75764C20.1678 7.74653 20.1365 7.73667 20.1048 7.72688L20.0913 7.72273C20.0641 7.71435 20.0366 7.70591 20.0097 7.69675C19.9471 7.67541 19.8864 7.64982 19.8358 7.61068C19.786 7.57217 19.7279 7.51667 19.6843 7.45947C19.6625 7.43086 19.644 7.40152 19.6321 7.37341C19.6203 7.34544 19.6145 7.31767 19.6193 7.2927C19.6305 7.23474 19.6735 7.17185 19.7273 7.11981C19.7813 7.06765 19.8479 7.02477 19.9083 7.00795C20.1169 6.94983 20.3453 6.93797 20.5631 6.94658C21.9131 6.99989 23.1185 7.48664 24.2348 8.21343C26.6544 9.7888 28.132 12.0286 28.7949 14.8121C29.4633 17.6189 29.1499 20.3476 28 22.9786C27.048 25.1567 25.5828 26.9492 23.7202 28.4058C22.5163 29.3473 21.1813 30.0681 19.7441 30.6107C18.4002 31.118 17.0204 31.4236 15.5954 31.5521L15.5945 31.5415L15.5954 31.5521C15.5804 31.5535 15.5709 31.5583 15.5655 31.5637C15.5602 31.5689 15.5583 31.5751 15.559 31.581C15.5604 31.5925 15.5733 31.6081 15.6037 31.6087C15.7058 31.6105 15.8073 31.6095 15.9076 31.5987C17.4896 31.428 19.044 31.126 20.5139 30.5014C22.3157 29.7358 23.9462 28.71 25.3491 27.321C26.41 26.2705 27.3186 25.1176 28.017 23.8014C29.4661 21.0703 29.9941 18.1738 29.4918 15.116C28.9598 11.8782 27.4205 9.2155 24.7807 7.24796C22.7059 5.7015 20.3594 4.94402 17.7545 5.09418C16.1059 5.18923 14.5687 5.68696 13.1997 6.59446C11.4146 7.77778 10.2076 9.40685 9.71137 11.5228C9.65966 11.7435 9.60121 11.9708 9.49733 12.1708C9.46759 12.2281 9.41303 12.2876 9.35182 12.3331C9.29083 12.3784 9.22143 12.4109 9.1616 12.4118C9.10238 12.4127 9.0253 12.3804 8.96038 12.336C8.92771 12.3137 8.89759 12.288 8.87386 12.2611C8.85023 12.2343 8.83238 12.2058 8.82519 12.1779C8.73296 11.8208 8.64852 11.4485 8.64705 11.0809C8.64304 10.0795 8.97408 9.15529 9.42717 8.28201C10.5905 6.03986 12.4282 4.57868 14.7794 3.73057C18.1561 2.51251 21.3992 2.95133 24.5212 4.57421C26.2709 5.48372 27.7151 6.76981 28.9113 8.34339C30.4274 10.3379 31.3574 12.573 31.7287 15.0435C31.7385 15.1082 31.7554 15.1555 31.7742 15.1859C31.7934 15.2171 31.8127 15.2281 31.8264 15.2274C31.8394 15.2267 31.8545 15.2151 31.8641 15.183C31.8737 15.1514 31.8766 15.1034 31.8673 15.0385C31.8444 14.8795 31.8194 14.721 31.7932 14.5628C31.3873 12.1121 30.4441 9.88169 28.934 7.91003C27.6785 6.27079 26.1389 4.95824 24.2961 3.99953C22.2239 2.92144 20.0243 2.37692 17.7011 2.47252C15.0145 2.58307 12.5351 3.40935 10.4833 5.17534C7.40469 7.825 6.02844 11.1687 6.86426 15.2333C7.35836 17.6359 8.72994 19.4611 10.9099 20.6235C11.255 20.8076 11.6318 20.9313 12.0094 21.0553C12.174 21.1094 12.3388 21.1635 12.5011 21.2226C12.567 21.2466 12.635 21.2661 12.7033 21.2856C12.7335 21.2942 12.7638 21.3029 12.794 21.312C12.8919 21.3414 12.9882 21.3752 13.0745 21.4266C13.1331 21.4616 13.1943 21.52 13.2406 21.5846C13.2868 21.6488 13.3194 21.7209 13.3183 21.7831C13.3173 21.8458 13.282 21.9257 13.234 21.9929C13.2099 22.0267 13.1822 22.0578 13.1534 22.0823C13.1247 22.1068 13.0942 22.1253 13.0645 22.1331C12.708 22.2266 12.3304 22.3249 11.9658 22.306C10.4057 22.2249 9.06042 21.6088 7.87284 20.6027C6.09124 19.0933 5.09115 17.1528 4.66163 14.8895C4.15642 12.2272 4.64829 9.71015 5.88007 7.34241C6.96841 5.25041 8.55628 3.59976 10.5648 2.34352C13.0705 0.77631 15.8008 0.0756378 18.735 0.137632Z" stroke="#F0E9DA" stroke-width="0.0214289"/>
<path d="M13.9214 3.92188L14.035 9.16892C14.0512 9.91669 14.6536 10.519 15.4013 10.5352L20.6484 10.6489L15.4013 10.7625C14.6536 10.7787 14.0512 11.3811 14.035 12.1288L13.9214 17.3759L13.8077 12.1288C13.7915 11.3811 13.1892 10.7787 12.4414 10.7625L7.19439 10.6489L12.4414 10.5352C13.1892 10.519 13.7915 9.91669 13.8077 9.16892L13.9214 3.92188Z" fill="#2B2B2B"/>
</g>
<defs>
<linearGradient id="paint0_linear_8079_50774" x1="16" y1="31.6201" x2="16" y2="-0.000436783" gradientUnits="userSpaceOnUse">
<stop stop-color="#F26F56"/>
<stop offset="1" stop-color="#F49756"/>
</linearGradient>
<clipPath id="clip0_8079_50774">
<rect width="32" height="32" fill="white"/>
</clipPath>
</defs>
</svg>
